# xmcd
#
# Track frame offsets: 
#        150
#        21379
#        48321
#        76511
#        114508
#        154059
#        186674
#        211872
#
# Disc length: 3343 seconds
#
# Revision: 0
# Processed by: cddbd v1.5.2PL0 Copyright (c) Steve Scherf et al.
# Submitted via: ExactAudioCopy v0.99pb5
#
DISCID=610d0d08
DTITLE=Eric Clapton  - E.C. Is Here - Disc 01 (DJ Copy 63)
DYEAR=1900
DGENRE=
TTITLE0=Smile
TTITLE1=Let It Grow
TTITLE2=Can't Find My Way Home
TTITLE3=I Shot The Sheriff
TTITLE4=Badge
TTITLE5=Willie And The Hand Jive
TTITLE6=Get Ready
TTITLE7=Crossroads
EXTD=
EXTT0=
EXTT1=
EXTT2=
EXTT3=
EXTT4=
EXTT5=
EXTT6=
EXTT7=
PLAYORDER=
